<svg width="181" height="65" viewBox="0 0 181 65" fill="none" xmlns="http://www.w3.org/2000/svg">
	<g transform="scale(0.125)">
		<circle cx="256" cy="256" r="50" fill="#EF0"/>
		<path d="M 200,224 h -16 a 24,32 0 0 1 0,-64 h 172 v 8 c 2,4 12,8 16,0 l 48,-64 c 4,-4 0,-8 -8,-8 h -220 a 96,96 0 0 0 0,192 h 8 a 128,96 0 0 1 0,-64" fill="white"/>
		<path d="M 312,288 h 16 a 24,32 0 0 1 0,64 h -172 v -8 c -2,-4 -12,-8 -16,0 l -48,64 c -4,4 0,8 8,8 h 220 a -96,-96 0 0 0 0,-192 h -8 a -128,-96 0 0 1 0,64" fill="white"/>
	</g>
	<path d="M78.82 40.654C77.7493 40.654 76.7813 40.4707 75.916 40.104C75.0653 39.7373 74.3907 39.2093 73.892 38.52C73.3933 37.8307 73.1367 37.0167 73.122 36.078H76.422C76.466 36.7087 76.686 37.2073 77.082 37.574C77.4927 37.9407 78.05 38.124 78.754 38.124C79.4727 38.124 80.0373 37.9553 80.448 37.618C80.8587 37.266 81.064 36.8113 81.064 36.254C81.064 35.7993 80.9247 35.4253 80.646 35.132C80.3673 34.8387 80.0153 34.6113 79.59 34.45C79.1793 34.274 78.6073 34.0833 77.874 33.878C76.8767 33.5847 76.0627 33.2987 75.432 33.02C74.816 32.7267 74.2807 32.294 73.826 31.722C73.386 31.1353 73.166 30.358 73.166 29.39C73.166 28.4807 73.3933 27.6887 73.848 27.014C74.3027 26.3393 74.9407 25.826 75.762 25.474C76.5833 25.1073 77.522 24.924 78.578 24.924C80.162 24.924 81.4453 25.3127 82.428 26.09C83.4253 26.8527 83.9753 27.9233 84.078 29.302H80.69C80.6607 28.774 80.4333 28.3413 80.008 28.004C79.5973 27.652 79.0473 27.476 78.358 27.476C77.7567 27.476 77.2727 27.63 76.906 27.938C76.554 28.246 76.378 28.6933 76.378 29.28C76.378 29.6907 76.51 30.0353 76.774 30.314C77.0527 30.578 77.39 30.798 77.786 30.974C78.1967 31.1353 78.7687 31.326 79.502 31.546C80.4993 31.8393 81.3133 32.1327 81.944 32.426C82.5747 32.7193 83.1173 33.1593 83.572 33.746C84.0267 34.3327 84.254 35.1027 84.254 36.056C84.254 36.8773 84.0413 37.64 83.616 38.344C83.1907 39.048 82.5673 39.6127 81.746 40.038C80.9247 40.4487 79.9493 40.654 78.82 40.654ZM98.2543 34.142C98.2543 34.582 98.2249 34.978 98.1663 35.33H89.2563C89.3296 36.21 89.6376 36.8993 90.1803 37.398C90.7229 37.8967 91.3903 38.146 92.1823 38.146C93.3263 38.146 94.1403 37.6547 94.6243 36.672H97.9463C97.5943 37.8453 96.9196 38.8133 95.9223 39.576C94.9249 40.324 93.7003 40.698 92.2483 40.698C91.0749 40.698 90.0189 40.4413 89.0803 39.928C88.1563 39.4 87.4303 38.6593 86.9023 37.706C86.3889 36.7527 86.1322 35.6527 86.1322 34.406C86.1322 33.1447 86.3889 32.0373 86.9023 31.084C87.4156 30.1307 88.1343 29.3973 89.0583 28.884C89.9823 28.3707 91.0456 28.114 92.2483 28.114C93.4069 28.114 94.4409 28.3633 95.3503 28.862C96.2743 29.3607 96.9856 30.072 97.4843 30.996C97.9976 31.9053 98.2543 32.954 98.2543 34.142ZM95.0643 33.262C95.0496 32.47 94.7636 31.8393 94.2063 31.37C93.6489 30.886 92.9669 30.644 92.1603 30.644C91.3976 30.644 90.7523 30.8787 90.2243 31.348C89.7109 31.8027 89.3956 32.4407 89.2783 33.262H95.0643ZM99.7104 34.362C99.7104 33.13 99.9524 32.0373 100.436 31.084C100.935 30.1307 101.602 29.3973 102.438 28.884C103.289 28.3707 104.235 28.114 105.276 28.114C106.186 28.114 106.978 28.2973 107.652 28.664C108.342 29.0307 108.892 29.4927 109.302 30.05V28.312H112.404V40.5H109.302V38.718C108.906 39.29 108.356 39.7667 107.652 40.148C106.963 40.5147 106.164 40.698 105.254 40.698C104.228 40.698 103.289 40.434 102.438 39.906C101.602 39.378 100.935 38.6373 100.436 37.684C99.9524 36.716 99.7104 35.6087 99.7104 34.362ZM109.302 34.406C109.302 33.658 109.156 33.02 108.862 32.492C108.569 31.9493 108.173 31.5387 107.674 31.26C107.176 30.9667 106.64 30.82 106.068 30.82C105.496 30.82 104.968 30.9593 104.484 31.238C104 31.5167 103.604 31.9273 103.296 32.47C103.003 32.998 102.856 33.6287 102.856 34.362C102.856 35.0953 103.003 35.7407 103.296 36.298C103.604 36.8407 104 37.2587 104.484 37.552C104.983 37.8453 105.511 37.992 106.068 37.992C106.64 37.992 107.176 37.8527 107.674 37.574C108.173 37.2807 108.569 36.87 108.862 36.342C109.156 35.7993 109.302 35.154 109.302 34.406ZM124.125 32.624C124.99 32.7853 125.701 33.218 126.259 33.922C126.816 34.626 127.095 35.4327 127.095 36.342C127.095 37.1633 126.889 37.8893 126.479 38.52C126.083 39.136 125.503 39.62 124.741 39.972C123.978 40.324 123.076 40.5 122.035 40.5H115.413V25.144H121.749C122.79 25.144 123.685 25.3127 124.433 25.65C125.195 25.9873 125.767 26.4567 126.149 27.058C126.545 27.6593 126.743 28.3413 126.743 29.104C126.743 29.9987 126.501 30.7467 126.017 31.348C125.547 31.9493 124.917 32.3747 124.125 32.624ZM118.493 31.48H121.309C122.042 31.48 122.607 31.3187 123.003 30.996C123.399 30.6587 123.597 30.182 123.597 29.566C123.597 28.95 123.399 28.4733 123.003 28.136C122.607 27.7987 122.042 27.63 121.309 27.63H118.493V31.48ZM121.595 37.992C122.343 37.992 122.922 37.816 123.333 37.464C123.758 37.112 123.971 36.6133 123.971 35.968C123.971 35.308 123.751 34.7947 123.311 34.428C122.871 34.0467 122.277 33.856 121.529 33.856H118.493V37.992H121.595ZM134.961 40.698C133.788 40.698 132.732 40.4413 131.793 39.928C130.855 39.4 130.114 38.6593 129.571 37.706C129.043 36.7527 128.779 35.6527 128.779 34.406C128.779 33.1593 129.051 32.0593 129.593 31.106C130.151 30.1527 130.906 29.4193 131.859 28.906C132.813 28.378 133.876 28.114 135.049 28.114C136.223 28.114 137.286 28.378 138.239 28.906C139.193 29.4193 139.941 30.1527 140.483 31.106C141.041 32.0593 141.319 33.1593 141.319 34.406C141.319 35.6527 141.033 36.7527 140.461 37.706C139.904 38.6593 139.141 39.4 138.173 39.928C137.22 40.4413 136.149 40.698 134.961 40.698ZM134.961 38.014C135.519 38.014 136.039 37.882 136.523 37.618C137.022 37.3393 137.418 36.9287 137.711 36.386C138.005 35.8433 138.151 35.1833 138.151 34.406C138.151 33.2473 137.843 32.36 137.227 31.744C136.626 31.1133 135.885 30.798 135.005 30.798C134.125 30.798 133.385 31.1133 132.783 31.744C132.197 32.36 131.903 33.2473 131.903 34.406C131.903 35.5647 132.189 36.4593 132.761 37.09C133.348 37.706 134.081 38.014 134.961 38.014ZM142.787 34.362C142.787 33.13 143.029 32.0373 143.513 31.084C144.011 30.1307 144.679 29.3973 145.515 28.884C146.365 28.3707 147.311 28.114 148.353 28.114C149.262 28.114 150.054 28.2973 150.729 28.664C151.418 29.0307 151.968 29.4927 152.379 30.05V28.312H155.481V40.5H152.379V38.718C151.983 39.29 151.433 39.7667 150.729 40.148C150.039 40.5147 149.24 40.698 148.331 40.698C147.304 40.698 146.365 40.434 145.515 39.906C144.679 39.378 144.011 38.6373 143.513 37.684C143.029 36.716 142.787 35.6087 142.787 34.362ZM152.379 34.406C152.379 33.658 152.232 33.02 151.939 32.492C151.645 31.9493 151.249 31.5387 150.751 31.26C150.252 30.9667 149.717 30.82 149.145 30.82C148.573 30.82 148.045 30.9593 147.561 31.238C147.077 31.5167 146.681 31.9273 146.373 32.47C146.079 32.998 145.933 33.6287 145.933 34.362C145.933 35.0953 146.079 35.7407 146.373 36.298C146.681 36.8407 147.077 37.2587 147.561 37.552C148.059 37.8453 148.587 37.992 149.145 37.992C149.717 37.992 150.252 37.8527 150.751 37.574C151.249 37.2807 151.645 36.87 151.939 36.342C152.232 35.7993 152.379 35.154 152.379 34.406ZM161.569 30.204C161.965 29.5587 162.478 29.0527 163.109 28.686C163.754 28.3193 164.487 28.136 165.309 28.136V31.37H164.495C163.527 31.37 162.793 31.5973 162.295 32.052C161.811 32.5067 161.569 33.2987 161.569 34.428V40.5H158.489V28.312H161.569V30.204ZM166.591 34.362C166.591 33.13 166.833 32.0373 167.317 31.084C167.816 30.1307 168.491 29.3973 169.341 28.884C170.192 28.3707 171.138 28.114 172.179 28.114C172.971 28.114 173.727 28.29 174.445 28.642C175.164 28.9793 175.736 29.434 176.161 30.006V24.22H179.285V40.5H176.161V38.696C175.78 39.2973 175.245 39.7813 174.555 40.148C173.866 40.5147 173.067 40.698 172.157 40.698C171.131 40.698 170.192 40.434 169.341 39.906C168.491 39.378 167.816 38.6373 167.317 37.684C166.833 36.716 166.591 35.6087 166.591 34.362ZM176.183 34.406C176.183 33.658 176.037 33.02 175.743 32.492C175.45 31.9493 175.054 31.5387 174.555 31.26C174.057 30.9667 173.521 30.82 172.949 30.82C172.377 30.82 171.849 30.9593 171.365 31.238C170.881 31.5167 170.485 31.9273 170.177 32.47C169.884 32.998 169.737 33.6287 169.737 34.362C169.737 35.0953 169.884 35.7407 170.177 36.298C170.485 36.8407 170.881 37.2587 171.365 37.552C171.864 37.8453 172.392 37.992 172.949 37.992C173.521 37.992 174.057 37.8527 174.555 37.574C175.054 37.2807 175.45 36.87 175.743 36.342C176.037 35.7993 176.183 35.154 176.183 34.406Z" fill="white"/>
</svg>

