<svg width="135" height="40" viewBox="0 0 135 40" fill="none" xmlns="http://www.w3.org/2000/svg">
<path d="M134.102 35.2778C134.102 37.3936 132.387 39.1089 130.27 39.1089C130.269 39.1089 130.267 39.1089 130.266 39.1089H4.72989C2.6111 39.1111 0.891591 37.396 0.888794 35.2778V4.72654C0.891591 2.60744 2.61036 0.891026 4.72989 0.890434H130.265C132.384 0.890434 134.101 2.60744 134.101 4.7255V4.72654L134.102 35.2778Z" fill="white"/>
<path d="M130.264 39.9995H4.72807C2.11826 39.9989 0.00152684 37.8863 -0.003479 35.2772V4.72701C0.000348995 2.11661 2.11693 0.00178528 4.72807 -0.000274658H130.263C132.874 0.00296402 134.99 2.11705 134.995 4.72701V35.2772C134.997 37.8819 132.871 39.9995 130.264 39.9995Z" fill="#A6A5A5"/>
<path d="M134.102 35.2778C134.102 37.3936 132.387 39.1089 130.27 39.1089C130.269 39.1089 130.267 39.1089 130.266 39.1089H4.72989C2.6111 39.1111 0.891591 37.396 0.888794 35.2778V4.72654C0.891591 2.60744 2.61036 0.891026 4.72989 0.890434H130.265C132.384 0.890434 134.101 2.60744 134.101 4.7255V4.72654L134.102 35.2778Z" fill="#010101"/>
<mask id="mask0_2592_1368" style="mask-type:luminance" maskUnits="userSpaceOnUse" x="63" y="0" width="72" height="40">
<path d="M63.0216 0.000213623H134.994V40H63.0216V0.000213623Z" fill="white"/>
</mask>
<g mask="url(#mask0_2592_1368)">
<g opacity="0.100006">
<path d="M130.263 0.000213623H63.0215L89.3586 40H130.263C132.873 39.9979 134.989 37.8844 134.994 35.2748V4.7275C134.99 2.11739 132.873 0.0030098 130.263 0.000213623Z" fill="white"/>
</g>
</g>
<path d="M27.9728 11.0871C28.828 10.0178 29.4131 8.56313 29.2507 7.08685C28.0128 7.14162 26.4648 7.94285 25.5733 8.98863C24.7846 9.91029 24.0801 11.4207 24.2621 12.8412C25.6527 12.9449 27.0804 12.1398 27.9728 11.0871ZM31.1041 20.3593C31.0758 17.2063 33.6865 15.6723 33.8059 15.6009C32.3272 13.4457 30.0355 13.1513 29.2302 13.1279C27.3054 12.9253 25.4383 14.2792 24.4578 14.2792C23.4578 14.2792 21.9479 13.1473 20.3206 13.1806C18.2265 13.213 16.2675 14.425 15.193 16.3072C12.9755 20.145 14.6294 25.7849 16.7538 28.887C17.8165 30.4073 19.0582 32.1027 20.6837 32.0429C22.2737 31.9784 22.8677 31.0304 24.7867 31.0304C26.6879 31.0304 27.2457 32.0429 28.9034 32.0048C30.6099 31.9784 31.6844 30.4787 32.7099 28.9458C33.938 27.2053 34.4312 25.4894 34.4508 25.4013C34.4116 25.3876 31.1373 24.1375 31.1041 20.3593Z" fill="white"/>
<path d="M119.168 25.015C119.182 24.3957 119.045 23.8626 118.762 23.4117C118.401 22.8305 117.846 22.5409 117.101 22.5409C116.419 22.5409 115.863 22.8236 115.44 23.391C115.093 23.842 114.886 24.384 114.823 25.0131L119.168 25.015ZM121.157 25.5559C121.162 25.8731 121.137 26.1899 121.081 26.502H114.822C114.845 27.4294 115.149 28.1397 115.73 28.6288C116.257 29.0652 116.939 29.2843 117.777 29.2843C118.704 29.2843 119.549 29.1375 120.309 28.8411L120.636 30.2879C119.748 30.6753 118.699 30.868 117.488 30.868C116.032 30.868 114.889 30.4396 114.058 29.5846C113.228 28.7286 112.812 27.5781 112.812 26.137C112.812 24.7225 113.198 23.5437 113.973 22.6035C114.783 21.5998 115.878 21.0979 117.255 21.0979C118.609 21.0979 119.633 21.5998 120.329 22.6035C120.88 23.3989 121.157 24.385 121.157 25.5559ZM111.826 23.1406C111.61 23.1014 111.389 23.0822 111.169 23.0829C110.435 23.0829 109.867 23.3588 109.468 23.9145C109.122 24.4036 108.948 25.0219 108.948 25.7682V30.694H106.861V24.2627C106.863 23.2772 106.843 22.2918 106.801 21.3073H108.618L108.694 23.1035H108.752C108.973 22.4862 109.319 21.9882 109.795 21.6154C110.23 21.2898 110.759 21.1134 111.303 21.1127C111.496 21.1127 111.67 21.1263 111.825 21.1508L111.826 23.1406ZM102.88 25.9708C102.88 25.1108 102.694 24.3732 102.321 23.7559C101.884 23.0105 101.257 22.6378 100.446 22.6378C99.6104 22.6378 98.9694 23.0105 98.533 23.7559C98.1592 24.3732 97.9732 25.1237 97.9732 26.01C97.9732 26.8708 98.1592 27.6104 98.533 28.2257C98.9841 28.9712 99.6132 29.3439 100.428 29.3439C101.226 29.3439 101.851 28.9633 102.303 28.2071C102.687 27.5752 102.88 26.8327 102.88 25.9708ZM105.042 25.9228C105.042 27.3658 104.629 28.5505 103.805 29.477C102.943 30.4307 101.796 30.9063 100.367 30.9063C98.9871 30.9063 97.89 30.4494 97.072 29.5366C96.254 28.622 95.8449 27.4695 95.8449 26.0793C95.8449 24.6247 96.2677 23.4332 97.1102 22.5066C97.9547 21.5792 99.0917 21.1156 100.521 21.1156C101.899 21.1156 103.006 21.5733 103.844 22.4871C104.644 23.3734 105.042 24.5181 105.042 25.9228ZM94.6873 22.8716H92.3877V27.4294C92.3877 28.5887 92.7929 29.1669 93.605 29.1669C93.9778 29.1669 94.2872 29.1355 94.5317 29.07L94.5894 30.6538C94.1785 30.8074 93.6373 30.8846 92.9671 30.8846C92.143 30.8846 91.4992 30.6333 91.0344 30.1304C90.5715 29.6276 90.3387 28.7853 90.3387 27.5996V22.8676H88.9688V21.3024H90.3387V19.5835L92.3877 18.9653V21.3024H94.6873V22.8716ZM87.7719 27.0421C87.7719 28.1504 87.3844 29.0513 86.6144 29.747C85.7669 30.5061 84.5839 30.8867 83.0672 30.8867C81.6658 30.8867 80.5424 30.6167 79.6951 30.0756L80.1775 28.3373C81.0923 28.8792 82.0973 29.1492 83.1914 29.1492C83.9781 29.1492 84.5897 28.9712 85.0262 28.618C85.4636 28.2639 85.6848 27.7904 85.6848 27.1995C85.6848 26.6703 85.5018 26.2272 85.1427 25.8661C84.7815 25.5062 84.1846 25.1705 83.346 24.8623C81.066 24.0122 79.925 22.7689 79.925 21.1331C79.925 20.065 80.3282 19.1903 81.1325 18.5065C81.9369 17.8237 83.0035 17.4822 84.3304 17.4822C85.5155 17.4822 86.5028 17.6887 87.2866 18.1005L86.7631 19.8007C86.0253 19.4015 85.1924 19.202 84.2609 19.202C83.525 19.202 82.9477 19.383 82.5348 19.743C82.1874 20.065 82.0112 20.4572 82.0112 20.9229C82.0112 21.4364 82.2119 21.8629 82.611 22.1976C82.9575 22.5057 83.5897 22.8413 84.5035 23.2013C85.625 23.6533 86.4489 24.1796 86.9764 24.7841C87.5078 25.3887 87.7719 26.1429 87.7719 27.0421ZM73.5703 25.961C73.5703 25.0472 73.3639 24.294 72.9509 23.7002C72.4998 23.0829 71.896 22.7737 71.1368 22.7737C70.622 22.7737 70.1543 22.946 69.7344 23.2853C69.3157 23.6278 69.0427 24.0749 68.9145 24.6285C68.8508 24.8869 68.8165 25.0972 68.8165 25.2635V26.8298C68.8165 27.5116 69.0269 28.0879 69.4439 28.5593C69.8626 29.0279 70.4068 29.2647 71.078 29.2647C71.8648 29.2647 72.4764 28.9605 72.9128 28.3568C73.3511 27.7513 73.5703 26.953 73.5703 25.961ZM75.6968 25.8847C75.6968 27.4813 75.2632 28.7432 74.3953 29.6697C73.6173 30.4943 72.6525 30.9063 71.4997 30.9063C70.256 30.9063 69.3616 30.4631 68.8186 29.5747V34.5005H66.7323V24.3918C66.7323 23.3891 66.7058 22.3609 66.6549 21.3063H68.4897L68.6062 22.7943H68.6453C69.3401 21.6732 70.3959 21.1127 71.8139 21.1127C72.9206 21.1127 73.8454 21.5499 74.5871 22.4255C75.3249 23.303 75.6968 24.4554 75.6968 25.8847ZM62.7711 25.961C62.7711 25.0472 62.5657 24.294 62.1527 23.7002C61.7016 23.0829 61.0959 22.7737 60.3365 22.7737C59.8218 22.7737 59.354 22.946 58.9362 23.2853C58.5175 23.6278 58.2435 24.0749 58.1152 24.6285C58.058 24.8357 58.0254 25.0487 58.0183 25.2635V26.8298C58.0183 27.5116 58.2277 28.0879 58.6466 28.5593C59.0654 29.029 59.6095 29.2647 60.2788 29.2647C61.0645 29.2647 61.6761 28.9605 62.1136 28.3568C62.552 27.7513 62.7711 26.953 62.7711 25.961ZM64.8965 25.8847C64.8965 27.4813 64.4631 28.7432 63.595 29.6697C62.8181 30.4943 61.8522 30.9063 60.7006 30.9063C59.4568 30.9063 58.5624 30.4631 58.0194 29.5747V34.5005H55.9331V24.3918C55.9331 23.3891 55.9066 22.3609 55.8558 21.3063H57.6906L57.8069 22.7943H57.8461C58.5419 21.6732 59.5977 21.1127 61.0146 21.1127C62.1224 21.1127 63.047 21.5499 63.7868 22.4255C64.5257 23.303 64.8965 24.4554 64.8965 25.8847ZM50.328 25.2654L49.2271 21.8659C49.1107 21.5186 48.8915 20.7007 48.5706 19.4133H48.5314C48.4023 19.967 48.1957 20.7849 47.9129 21.8659L46.8307 25.2654H50.328ZM54.1345 30.694H51.9122L50.6949 26.8698H46.4637L45.3041 30.694H43.1405L47.3337 17.675H49.9229L54.1345 30.694Z" fill="white"/>
<path d="M119.253 11.3562C119.253 10.6441 118.894 10.1411 118.238 10.1411C117.649 10.1411 117.183 10.6538 117.117 11.3562H119.253ZM120.193 12.0869H117.116C117.135 12.9606 117.713 13.4537 118.57 13.4537C119.025 13.4537 119.444 13.3774 119.813 13.2355L119.973 13.9476C119.536 14.1376 119.023 14.2324 118.425 14.2324C116.982 14.2324 116.127 13.3206 116.127 11.907C116.127 10.4924 117.002 9.42897 118.309 9.42897C119.489 9.42897 120.228 10.3026 120.228 11.6223C120.235 11.778 120.223 11.9341 120.193 12.0871V12.0869ZM114.631 14.1473H113.607V11.5176C113.607 10.6919 113.294 10.2742 112.676 10.2742C112.145 10.2742 111.649 10.6352 111.649 11.3659V14.1473H110.625V7.41662H111.649V10.1881H111.67C111.993 9.6853 112.461 9.4378 113.058 9.4378C114.034 9.4378 114.631 10.1969 114.631 11.4032V14.1473ZM109.202 10.3026H108.074V12.5429C108.074 13.1133 108.272 13.3979 108.671 13.3979C108.852 13.3979 109.003 13.3783 109.126 13.35L109.154 14.1287C108.956 14.205 108.689 14.2431 108.359 14.2431C107.55 14.2431 107.067 13.797 107.067 12.629V10.3026H106.394V9.53365H107.067V8.6884L108.074 8.38422V9.53277H109.202V10.3026ZM102.302 14.1473H101.276V11.498C101.276 10.6822 100.963 10.2732 100.345 10.2732C99.7376 10.2732 99.3208 10.7957 99.3208 11.4032V14.1473H98.2943V10.8524C98.2943 10.4444 98.2846 10.0071 98.2562 9.53277H99.1584L99.2062 10.2449H99.2347C99.5097 9.75185 100.07 9.4378 100.697 9.4378C101.665 9.4378 102.302 10.1784 102.302 11.3836V14.1473ZM94.527 10.1881C93.7871 10.1881 93.3126 10.8808 93.3126 11.8493C93.3126 12.7992 93.7968 13.4918 94.5171 13.4918C95.2393 13.4918 95.7226 12.7512 95.7226 11.8297C95.7247 10.8905 95.25 10.1881 94.527 10.1881ZM94.4887 14.252C93.1412 14.252 92.2674 13.2453 92.2674 11.8786C92.2674 10.4543 93.1599 9.43883 94.5651 9.43883C95.8949 9.43883 96.7874 10.3975 96.7874 11.8034C96.7883 13.2453 95.8675 14.252 94.4887 14.252ZM86.954 11.4325C86.954 10.7869 86.5263 10.2361 85.8736 10.2361C85.1133 10.2361 84.6485 10.9101 84.6485 11.859C84.6485 12.7894 85.131 13.4263 85.8532 13.4263C86.498 13.4263 86.954 12.8658 86.954 12.2015V11.4325ZM87.1056 14.1473L87.0577 13.4067H87.0292C86.7348 13.9663 86.2396 14.252 85.5478 14.252C84.4352 14.252 83.6113 13.2736 83.6113 11.8971C83.6113 10.4543 84.4655 9.4378 85.632 9.4378C86.2494 9.4378 86.6868 9.64614 86.9334 10.0649H86.954V7.41662H87.9805V12.9039C87.9805 13.35 87.9912 13.7677 88.0186 14.1473H87.1056ZM81.1268 11.8493C79.9878 11.8493 79.4162 12.1252 79.4162 12.7796C79.4162 13.2639 79.7108 13.5006 80.1198 13.5006C80.6413 13.5006 81.1268 13.1025 81.1268 12.5615V11.8493ZM81.2677 14.1473L81.1933 13.6161H81.1659C80.8528 14.0436 80.3958 14.252 79.8164 14.252C78.9896 14.252 78.4024 13.6727 78.4024 12.894C78.4024 11.7554 79.3899 11.1664 81.0994 11.1664V11.0813C81.0994 10.4739 80.7774 10.1695 80.1413 10.1695C79.6862 10.1695 79.2871 10.2841 78.9358 10.512L78.7273 9.83798C79.154 9.57178 79.6862 9.43883 80.3115 9.43883C81.5172 9.43883 82.1259 10.0747 82.1259 11.3474V13.0467C82.1259 13.5124 82.1463 13.8733 82.1924 14.1483L81.2677 14.1473ZM74.9649 10.1881C74.2241 10.1881 73.7495 10.8808 73.7495 11.8493C73.7495 12.7992 74.2349 13.4918 74.9541 13.4918C75.6763 13.4918 76.1596 12.7512 76.1596 11.8297C76.1607 10.8905 75.687 10.1881 74.9649 10.1881ZM74.9267 14.252C73.5793 14.252 72.7044 13.2453 72.7044 11.8786C72.7044 10.4543 73.5968 9.43883 75.002 9.43883C76.3319 9.43883 77.2243 10.3975 77.2243 11.8034C77.2253 13.2453 76.3035 14.252 74.9267 14.252ZM71.1876 14.1473H70.1612V7.41662H71.1876V14.1473ZM68.3596 14.1473H67.3342V11.498C67.3342 10.6822 67.021 10.2732 66.4035 10.2732C65.7959 10.2732 65.3781 10.7957 65.3781 11.4032V14.1473H64.3526V10.8524C64.3526 10.4444 64.3427 10.0071 64.3143 9.53277H65.2166L65.2646 10.2449H65.293C65.5689 9.75185 66.1287 9.43883 66.7559 9.43883C67.7246 9.43883 68.3607 10.1794 68.3607 11.3846L68.3596 14.1473ZM63.0462 9.53365L61.6028 14.1473H60.6624L60.0645 12.1438C59.916 11.6536 59.7921 11.1564 59.6936 10.6538H59.6741C59.5988 11.1567 59.4559 11.6604 59.3042 12.1438L58.6682 14.1473H57.718L56.3597 9.53365H57.4136L57.9361 11.7269C58.0595 12.2493 58.1632 12.7424 58.2493 13.2081H58.2689C58.3443 12.8197 58.4675 12.3346 58.6486 11.7368L59.3042 9.53468H60.1399L60.7671 11.6898C60.9187 12.2122 61.0421 12.7249 61.138 13.2091H61.1654C61.2319 12.7346 61.3366 12.2308 61.4785 11.6898L62.0393 9.53468L63.0462 9.53365ZM53.0973 10.1881C52.3565 10.1881 51.882 10.8808 51.882 11.8493C51.882 12.7992 52.3664 13.4918 53.0875 13.4918C53.8087 13.4918 54.2931 12.7512 54.2931 11.8297C54.2931 10.8905 53.8185 10.1881 53.0973 10.1881ZM53.0582 14.252C51.7098 14.252 50.8359 13.2453 50.8359 11.8786C50.8359 10.4543 51.7283 9.43883 53.1345 9.43883C54.4634 9.43883 55.3568 10.3975 55.3568 11.8034C55.3568 13.2453 54.436 14.252 53.0582 14.252ZM46.2142 8.50745C45.8913 8.50745 45.6163 8.52703 45.3884 8.574V13.3587C45.5116 13.3783 45.7484 13.3871 46.0811 13.3871C47.6488 13.3871 48.5412 12.4949 48.5412 10.824C48.5412 9.33415 47.7339 8.50745 46.2142 8.50745ZM45.864 14.204C45.2837 14.204 44.7817 14.1757 44.3638 14.1277V7.83343C44.9482 7.74318 45.5387 7.69871 46.1302 7.70033C48.5227 7.70033 49.6245 8.8773 49.6245 10.7957C49.6245 13.0086 48.323 14.204 45.864 14.204Z" fill="white"/>
</svg>
