<svg width="510" height="864" viewBox="0 0 510 864" fill="none" xmlns="http://www.w3.org/2000/svg">
<g opacity="0.5">
<path d="M381.799 871.666C448.019 795.267 419.426 635.312 361.834 546.749C295.456 444.697 206.596 462.118 176.458 366.619C148.935 279.49 208.916 220.434 185.459 159.2C163.9 102.926 77.5508 59.6018 -189.827 97.6862" stroke="#331199" stroke-width="0.812705" stroke-miterlimit="10"/>
<path d="M-194.645 111.192C69.0512 73.9485 156.891 116.035 180.565 171.524C198.067 212.688 176.517 253.318 170.751 302.559C167.501 327.462 169.584 352.768 176.813 376.207C200.449 453.02 259.792 459.192 317.557 512.82C332.326 526.45 345.629 542.097 357.192 559.44C416.198 647.332 450.185 800.501 387.814 876.388" stroke="#331199" stroke-width="0.812705" stroke-miterlimit="10"/>
<path d="M-199.426 124.688C60.5763 88.2967 149.867 129.114 175.577 183.727C194.473 223.875 174.901 264.067 170.38 312.308C167.786 337.165 170.076 362.249 177.078 385.649C199.874 461.791 255.67 471.045 312.871 525.53C327.439 539.349 340.705 554.925 352.457 572.01C412.645 659.457 452.271 805.605 393.749 880.979" stroke="#331199" stroke-width="0.812705" stroke-miterlimit="10"/>
<path d="M-204.192 138.144C52.061 102.609 142.817 142.212 170.639 195.975C190.921 235.158 173.315 274.831 170.055 322.127C168.104 346.901 170.589 371.755 177.353 395.102C199.345 470.633 251.524 482.826 308.194 538.252C322.599 552.238 335.855 567.753 347.798 584.604C409.298 671.469 454.423 810.718 399.751 885.58" stroke="#331199" stroke-width="0.812705" stroke-miterlimit="10"/>
<path d="M-209.021 151.654C43.5772 116.937 135.737 155.289 165.698 208.245C187.327 246.431 171.733 285.659 169.762 331.963C168.454 356.67 171.145 381.332 177.692 404.657C198.882 479.576 247.459 494.763 303.629 551.149C317.814 565.298 331.019 580.728 343.125 597.3C405.948 683.598 456.559 815.959 405.745 890.324" stroke="#331199" stroke-width="0.812705" stroke-miterlimit="10"/>
<path d="M-213.859 165.08C35.0881 131.247 129.923 167.327 160.774 220.502C182.831 258.427 170.244 296.407 169.443 341.778C168.793 366.394 171.689 390.863 178.008 414.166C198.395 488.474 243.352 506.626 298.945 563.881C312.952 578.177 326.134 593.535 338.409 609.857C402.605 695.544 458.664 821.051 411.686 894.916" stroke="#331199" stroke-width="0.812705" stroke-miterlimit="10"/>
<path d="M-218.614 178.634C26.5967 145.58 121.497 181.512 155.906 232.685C180.048 268.968 168.698 307.247 169.121 351.616C169.123 376.12 172.22 400.403 178.314 423.683C197.897 497.38 239.274 518.531 294.299 576.669C308.114 591.127 321.267 606.422 333.706 622.492C399.224 707.613 460.821 826.189 417.654 899.576" stroke="#331199" stroke-width="0.812705" stroke-miterlimit="10"/>
<path d="M-223.415 192.115C18.0894 159.856 114.438 194.545 150.907 245.004C176.427 280.216 167.285 318.015 168.824 361.431C169.478 385.802 172.786 409.903 178.669 433.154C197.427 506.237 235.199 530.408 289.704 589.411C302.37 603.154 315.618 618.066 329.066 635.07C395.954 719.606 462.939 831.359 423.646 904.213" stroke="#331199" stroke-width="0.812705" stroke-miterlimit="10"/>
<path d="M-228.214 205.59C9.61972 174.21 107.243 207.694 146.005 257.214C172.799 291.471 165.873 328.805 168.563 371.259C169.875 395.493 173.384 419.436 179.031 442.688C196.986 515.161 231.172 542.29 285.103 602.228C297.663 616.178 310.858 631.069 324.43 647.739C392.592 731.57 465.075 836.518 429.644 908.849" stroke="#331199" stroke-width="0.812705" stroke-miterlimit="10"/>
<path d="M-232.99 219.066C1.14433 188.523 100.074 220.82 141.049 269.493C169.095 302.791 164.483 339.688 168.219 381.046C170.18 405.118 173.885 428.904 179.291 452.152C196.452 524.029 227.037 554.153 280.473 614.935C292.88 629.019 306.085 643.924 319.768 660.271C389.406 743.561 467.289 841.608 435.694 913.441" stroke="#331199" stroke-width="0.812705" stroke-miterlimit="10"/>
<path d="M-237.787 232.535C-7.33768 202.816 92.883 233.962 136.107 281.689C165.392 314.04 163.082 350.419 167.887 390.843C170.515 414.733 174.427 438.371 179.599 461.619C195.947 532.872 222.943 565.98 275.766 627.732C288.042 642.045 301.232 656.896 315.004 672.915C386.055 755.562 469.34 846.776 441.612 918.128" stroke="#331199" stroke-width="0.812705" stroke-miterlimit="10"/>
<path d="M-242.584 245.999C-15.8218 217.13 85.7121 247.129 131.213 293.954C161.734 325.384 161.762 361.237 167.598 400.669C170.958 423.332 174.505 446.444 179.946 471.14C195.503 541.773 218.884 577.888 271.163 640.528C283.301 655.031 296.485 669.842 310.375 685.578C382.838 767.583 471.536 851.977 447.634 922.816" stroke="#331199" stroke-width="0.812705" stroke-miterlimit="10"/>
<path d="M-247.378 259.459C-24.3408 231.473 78.4547 260.213 126.282 306.182C158.053 336.68 160.47 372.03 167.304 410.477C171.334 433.167 175.112 456.146 180.279 480.63C194.995 550.687 214.815 589.74 266.545 653.295C278.533 667.998 291.721 682.784 305.694 698.153C379.587 779.478 473.681 857.089 453.615 927.43" stroke="#331199" stroke-width="0.812705" stroke-miterlimit="10"/>
<path d="M-252.189 272.886C-32.7782 245.719 71.2885 273.463 121.354 318.406C154.336 348.004 159.195 382.807 167 420.292C171.734 443.001 175.722 465.843 180.565 490.067C194.525 559.497 210.686 601.552 261.905 666.081C273.777 680.976 286.951 695.708 301.01 710.776C376.366 791.415 475.849 862.228 459.619 932.072" stroke="#331199" stroke-width="0.812705" stroke-miterlimit="10"/>
<path d="M-256.938 286.368C-41.2403 260.006 64.0372 286.626 116.454 330.627C150.669 359.329 157.973 393.558 166.719 430.064C172.17 452.782 176.36 475.539 180.957 499.594C194.094 568.388 206.685 613.458 257.308 678.83C269.669 694.456 282.722 709.313 296.417 723.344C373.156 803.324 478.026 867.431 465.643 936.701" stroke="#331199" stroke-width="0.812705" stroke-miterlimit="10"/>
<path d="M-261.728 299.809C-49.7139 274.296 56.8999 299.864 111.519 342.781C146.954 370.599 156.738 404.247 166.446 439.868C172.627 462.584 177 485.227 181.302 509.067C193.645 577.268 202.623 625.323 252.683 691.556C264.842 707.337 277.878 722.163 291.71 735.942C370.025 815.163 480.178 872.52 471.719 941.307" stroke="#331199" stroke-width="0.812705" stroke-miterlimit="10"/>
<path d="M-266.514 313.244C-58.1794 288.553 49.679 313.174 106.655 355.03C143.267 381.957 155.592 414.995 166.174 449.626C173.098 472.329 177.617 494.891 181.644 518.52C193.175 586.099 198.571 637.158 248.102 704.338C260.076 720.259 273.109 735.044 287.086 748.563C366.803 827.062 482.354 877.661 477.694 945.986" stroke="#331199" stroke-width="0.812705" stroke-miterlimit="10"/>
<path d="M-271.232 326.51C-66.6053 302.683 42.5345 326.138 101.862 367.046C139.729 393.138 154.571 425.504 166.019 459.231C173.748 481.964 178.385 504.408 182.125 527.842C192.877 594.811 194.633 648.893 243.621 717.008C255.417 733.063 268.451 747.814 282.566 761.082C363.78 838.853 484.71 882.732 483.884 950.58" stroke="#331199" stroke-width="0.812705" stroke-miterlimit="10"/>
<path d="M-275.956 339.75C-74.9583 316.628 35.4264 339.199 97.0483 379.097C136.127 404.347 153.513 436.019 165.807 468.905C174.24 491.598 179.094 514.019 182.541 537.218C192.462 603.622 190.636 660.7 239.111 729.704C250.729 745.895 263.766 760.613 278.018 773.628C360.743 850.66 487.039 887.944 490.041 955.209" stroke="#331199" stroke-width="0.812705" stroke-miterlimit="10"/>
<path d="M-280.679 352.984C-83.2911 330.755 28.3296 352.269 92.3182 391.049C132.641 415.474 152.589 446.415 165.755 478.436C175.033 501.033 179.935 523.443 183.092 546.475C192.198 612.276 186.775 672.366 234.682 742.33C246.116 758.661 259.158 773.35 273.551 786.104C357.817 862.349 489.451 892.855 496.312 959.739" stroke="#331199" stroke-width="0.812705" stroke-miterlimit="10"/>
<path d="M-285.379 366.222C-91.6489 344.815 21.1691 365.397 87.5236 402.991C129.056 426.598 151.584 456.769 165.585 487.958C175.696 510.47 180.69 532.878 183.588 555.667C191.885 620.906 182.85 684.021 230.218 754.898C241.481 771.361 254.533 786.026 269.058 798.537C354.921 873.83 491.789 897.853 502.533 964.266" stroke="#331199" stroke-width="0.812705" stroke-miterlimit="10"/>
<path d="M-290.111 379.442C18.3791 346.016 126.854 418.397 165.499 497.608C207.687 584.077 162.609 670.68 225.789 767.615C299.918 881.315 491.745 891.777 508.785 968.853" stroke="#331199" stroke-width="0.812705" stroke-miterlimit="10"/>
</g>
</svg>
