<svg width="192" height="84" viewBox="0 0 192 84" fill="none" xmlns="http://www.w3.org/2000/svg">
<g opacity="0.8">
<mask id="mask0_124_907" style="mask-type:alpha" maskUnits="userSpaceOnUse" x="21" y="21" width="42" height="42">
<rect x="21.8181" y="21.8184" width="40.3636" height="40.3636" fill="url(#paint0_linear_124_907)"/>
</mask>
<g mask="url(#mask0_124_907)">
<path d="M34.5059 21.8188C32.7242 21.8188 31.0807 22.1371 29.5568 22.7633L29.5459 22.7677L29.535 22.7721C27.9823 23.3864 26.6457 24.2296 25.5095 25.3016C24.371 26.3757 23.4613 27.6404 22.7815 29.1098C22.1433 30.5497 21.8181 32.1041 21.8181 33.7896C21.8181 33.8356 21.8184 33.8816 21.8188 33.9275L21.8181 34.0652C21.8181 35.7506 22.1433 37.3053 22.7815 38.7451C23.4613 40.2146 24.3711 41.4791 25.5096 42.5533C26.6457 43.6252 27.9822 44.4685 29.535 45.0826L29.5568 45.0916C31.0692 45.7131 32.6993 46.0318 34.4654 46.0365H34.5344C34.7444 46.0365 34.8769 45.8082 34.7826 45.6206C34.2353 44.5317 33.9272 43.3019 33.9272 42.0002C33.9272 40.6984 34.2353 39.4687 34.7826 38.3798C34.8769 38.1921 34.7444 37.9638 34.5344 37.9638H34.4201C33.1969 37.9643 32.1081 37.9646 31.2405 37.146C30.3526 36.3083 29.8828 35.2521 29.8828 34.0652C29.8828 34.0192 29.8836 33.9732 29.8849 33.9275C29.8836 33.8817 29.8829 33.8357 29.8829 33.7896C29.8829 32.6026 30.3526 31.5464 31.2405 30.7087C32.108 29.8902 33.1964 29.8906 34.4194 29.8911L53.8363 29.8911C53.9869 29.8911 54.109 30.0132 54.109 30.1638V30.7513C54.109 30.7753 54.1118 30.7993 54.1195 30.822C54.2361 31.1679 54.6689 31.3782 55.1629 31.3782C55.5342 31.3782 55.8605 31.2259 56.0468 30.9957L56.0654 30.9718L56.0806 30.9511L61.859 23.3121C62.1011 23.0133 62.1818 22.864 62.1818 22.6469C62.1818 22.1892 61.7122 21.8184 61.133 21.8184C61.1017 21.8184 61.0708 21.8195 61.0402 21.8216C61.0256 21.8226 61.0109 21.8227 60.9962 21.8218C60.9615 21.8196 60.9264 21.8184 60.8909 21.8184L34.5059 21.8188Z" fill="black"/>
<path d="M49.5798 46.0365H49.4655C49.2555 46.0365 49.123 45.8082 49.2173 45.6206C49.7646 44.5317 50.0727 43.3019 50.0727 42.0002C50.0727 40.6984 49.7646 39.4687 49.2173 38.3798C49.123 38.1921 49.2555 37.9638 49.4655 37.9638H49.5345C51.3005 37.9685 52.9307 38.2873 54.443 38.9088L54.4648 38.9177C56.0176 39.5318 57.3541 40.3751 58.4903 41.447C59.6288 42.5213 60.5386 43.7858 61.2184 45.2553C61.8566 46.6951 62.1818 48.2497 62.1818 49.9352L62.181 50.0729C62.1812 50.0916 62.1814 50.1103 62.1815 50.129C62.1817 50.1563 62.1818 50.1835 62.1818 50.2108C62.1818 51.8962 61.8566 53.4507 61.2184 54.8905C60.5386 56.36 59.6288 57.6246 58.4904 58.6988C57.3541 59.7708 56.0176 60.614 54.4649 61.2283L54.4539 61.2326L54.4431 61.2371C52.9192 61.8632 51.2757 62.1815 49.494 62.1815L23.1089 62.182C23.0735 62.182 23.0384 62.1808 23.0036 62.1786C22.989 62.1776 22.9743 62.1777 22.9596 62.1787C22.9291 62.1809 22.8981 62.182 22.8669 62.182C22.2877 62.182 21.8181 61.8112 21.8181 61.3535C21.8181 61.1364 21.8988 60.987 22.1408 60.6883L27.9193 53.0493L27.9345 53.0286L27.9531 53.0047C28.1394 52.7745 28.4656 52.6222 28.837 52.6222C29.331 52.6222 29.7637 52.8325 29.8804 53.1784C29.888 53.2011 29.8908 53.2251 29.8908 53.249V53.8365C29.8908 53.9872 30.0129 54.1093 30.1636 54.1093L49.5804 54.1093C50.8034 54.1097 51.8919 54.1101 52.7594 53.2917C53.6473 52.4539 54.117 51.3978 54.117 50.2108C54.117 50.1646 54.1163 50.1187 54.1149 50.0729C54.1163 50.0272 54.117 49.9812 54.117 49.9352C54.117 48.7482 53.6473 47.6921 52.7594 46.8543C51.8918 46.0358 50.8029 46.036 49.5798 46.0365Z" fill="black"/>
<circle cx="42.2727" cy="42.2729" r="5.45455" fill="black"/>
</g>
<path d="M80.3585 49.3148C79.4029 49.3148 78.5389 49.1512 77.7665 48.8239C77.0073 48.4967 76.4051 48.0254 75.96 47.4101C75.5149 46.7948 75.2858 46.0683 75.2727 45.2305H78.2182C78.2574 45.7934 78.4538 46.2385 78.8073 46.5658C79.1738 46.893 79.6713 47.0567 80.2996 47.0567C80.9411 47.0567 81.4451 46.9061 81.8116 46.605C82.1782 46.2908 82.3614 45.885 82.3614 45.3876C82.3614 44.9818 82.2371 44.6479 81.9883 44.3861C81.7396 44.1243 81.4254 43.9214 81.0458 43.7774C80.6793 43.6203 80.1687 43.4501 79.5142 43.2668C78.624 43.005 77.8974 42.7498 77.3345 42.501C76.7847 42.2392 76.3069 41.853 75.9011 41.3425C75.5083 40.8188 75.312 40.125 75.312 39.261C75.312 38.4494 75.5149 37.7425 75.9207 37.1403C76.3265 36.5381 76.896 36.0799 77.6291 35.7658C78.3622 35.4385 79.2 35.2748 80.1425 35.2748C81.5563 35.2748 82.7018 35.6218 83.5789 36.3156C84.4691 36.9963 84.96 37.9519 85.0516 39.1825H82.0276C82.0014 38.7112 81.7985 38.325 81.4189 38.0239C81.0523 37.7098 80.5614 37.5527 79.9462 37.5527C79.4094 37.5527 78.9774 37.6901 78.6502 37.965C78.336 38.2399 78.1789 38.6392 78.1789 39.1628C78.1789 39.5294 78.2967 39.837 78.5323 40.0858C78.7811 40.3214 79.0822 40.5178 79.4356 40.6748C79.8022 40.8188 80.3127 40.989 80.9673 41.1854C81.8574 41.4472 82.584 41.709 83.1469 41.9708C83.7098 42.2327 84.1942 42.6254 84.6 43.149C85.0058 43.6727 85.2087 44.3599 85.2087 45.2108C85.2087 45.9439 85.0189 46.6247 84.6392 47.253C84.2596 47.8814 83.7033 48.3854 82.9702 48.765C82.2371 49.1316 81.3665 49.3148 80.3585 49.3148Z" fill="black"/>
<path d="M97.7048 43.5025C97.7048 43.8952 97.6786 44.2487 97.6263 44.5628H89.6735C89.739 45.3483 90.0139 45.9636 90.4983 46.4087C90.9826 46.8538 91.5783 47.0763 92.2852 47.0763C93.3063 47.0763 94.0328 46.6378 94.4648 45.7607H97.4299C97.1157 46.8079 96.5135 47.6719 95.6233 48.3527C94.7332 49.0203 93.6401 49.3541 92.3441 49.3541C91.2968 49.3541 90.3543 49.125 89.5164 48.6668C88.6917 48.1956 88.0437 47.5345 87.5724 46.6836C87.1143 45.8327 86.8852 44.8508 86.8852 43.7381C86.8852 42.6123 87.1143 41.6239 87.5724 40.773C88.0306 39.9221 88.6721 39.2676 89.4968 38.8094C90.3215 38.3512 91.2706 38.1221 92.3441 38.1221C93.3783 38.1221 94.3012 38.3447 95.1128 38.7898C95.9375 39.2348 96.5724 39.8698 97.0175 40.6945C97.4757 41.5061 97.7048 42.4421 97.7048 43.5025ZM94.8575 42.717C94.8444 42.0101 94.5892 41.4472 94.0917 41.0283C93.5943 40.5963 92.9855 40.3803 92.2655 40.3803C91.5848 40.3803 91.0088 40.5898 90.5375 41.0087C90.0793 41.4145 89.7979 41.9839 89.6932 42.717H94.8575Z" fill="black"/>
<path d="M99.0045 43.6988C99.0045 42.5992 99.2205 41.6239 99.6525 40.773C100.098 39.9221 100.693 39.2676 101.439 38.8094C102.199 38.3512 103.043 38.1221 103.972 38.1221C104.784 38.1221 105.491 38.2858 106.093 38.613C106.708 38.9403 107.199 39.3527 107.566 39.8501V38.2988H110.335V49.1774H107.566V47.5868C107.212 48.0974 106.722 48.5228 106.093 48.8632C105.478 49.1905 104.764 49.3541 103.953 49.3541C103.036 49.3541 102.199 49.1185 101.439 48.6472C100.693 48.1759 100.098 47.5148 99.6525 46.6639C99.2205 45.7999 99.0045 44.8116 99.0045 43.6988ZM107.566 43.7381C107.566 43.0705 107.435 42.501 107.173 42.0298C106.911 41.5454 106.558 41.1788 106.113 40.9301C105.668 40.6683 105.19 40.5374 104.679 40.5374C104.169 40.5374 103.698 40.6618 103.266 40.9105C102.834 41.1592 102.48 41.5258 102.205 42.0101C101.943 42.4814 101.812 43.0443 101.812 43.6988C101.812 44.3534 101.943 44.9294 102.205 45.4268C102.48 45.9112 102.834 46.2843 103.266 46.5461C103.711 46.8079 104.182 46.9388 104.679 46.9388C105.19 46.9388 105.668 46.8145 106.113 46.5658C106.558 46.3039 106.911 45.9374 107.173 45.4661C107.435 44.9818 107.566 44.4058 107.566 43.7381Z" fill="black"/>
<path d="M120.796 42.1476C121.568 42.2916 122.203 42.6778 122.7 43.3061C123.198 43.9345 123.447 44.6545 123.447 45.4661C123.447 46.1992 123.263 46.8472 122.897 47.4101C122.543 47.9599 122.026 48.3919 121.345 48.7061C120.665 49.0203 119.86 49.1774 118.93 49.1774H113.02V35.4712H118.675C119.604 35.4712 120.403 35.6218 121.071 35.9228C121.751 36.2239 122.262 36.6428 122.602 37.1796C122.956 37.7163 123.132 38.325 123.132 39.0058C123.132 39.8043 122.916 40.4719 122.484 41.0087C122.065 41.5454 121.503 41.925 120.796 42.1476ZM115.769 41.1265H118.282C118.937 41.1265 119.441 40.9825 119.794 40.6945C120.148 40.3934 120.324 39.9679 120.324 39.4181C120.324 38.8683 120.148 38.4428 119.794 38.1418C119.441 37.8407 118.937 37.6901 118.282 37.6901H115.769V41.1265ZM118.537 46.9388C119.205 46.9388 119.722 46.7818 120.089 46.4676C120.468 46.1534 120.658 45.7083 120.658 45.1323C120.658 44.5432 120.462 44.085 120.069 43.7578C119.676 43.4174 119.146 43.2472 118.479 43.2472H115.769V46.9388H118.537Z" fill="black"/>
<path d="M130.468 49.3541C129.421 49.3541 128.478 49.125 127.64 48.6668C126.803 48.1956 126.142 47.5345 125.657 46.6836C125.186 45.8327 124.95 44.8508 124.95 43.7381C124.95 42.6254 125.192 41.6436 125.677 40.7927C126.174 39.9418 126.848 39.2872 127.699 38.829C128.55 38.3578 129.499 38.1221 130.547 38.1221C131.594 38.1221 132.543 38.3578 133.394 38.829C134.245 39.2872 134.912 39.9418 135.397 40.7927C135.894 41.6436 136.143 42.6254 136.143 43.7381C136.143 44.8508 135.888 45.8327 135.377 46.6836C134.88 47.5345 134.199 48.1956 133.335 48.6668C132.484 49.125 131.528 49.3541 130.468 49.3541ZM130.468 46.9585C130.966 46.9585 131.43 46.8407 131.862 46.605C132.307 46.3563 132.661 45.9898 132.923 45.5054C133.184 45.021 133.315 44.4319 133.315 43.7381C133.315 42.7039 133.04 41.9119 132.491 41.3621C131.954 40.7992 131.293 40.5178 130.507 40.5178C129.722 40.5178 129.061 40.7992 128.524 41.3621C128 41.9119 127.739 42.7039 127.739 43.7381C127.739 44.7723 127.994 45.5708 128.504 46.1338C129.028 46.6836 129.683 46.9585 130.468 46.9585Z" fill="black"/>
<path d="M137.453 43.6988C137.453 42.5992 137.669 41.6239 138.101 40.773C138.546 39.9221 139.141 39.2676 139.888 38.8094C140.647 38.3512 141.491 38.1221 142.421 38.1221C143.232 38.1221 143.939 38.2858 144.541 38.613C145.157 38.9403 145.648 39.3527 146.014 39.8501V38.2988H148.783V49.1774H146.014V47.5868C145.661 48.0974 145.17 48.5228 144.541 48.8632C143.926 49.1905 143.213 49.3541 142.401 49.3541C141.485 49.3541 140.647 49.1185 139.888 48.6472C139.141 48.1759 138.546 47.5148 138.101 46.6639C137.669 45.7999 137.453 44.8116 137.453 43.6988ZM146.014 43.7381C146.014 43.0705 145.883 42.501 145.621 42.0298C145.36 41.5454 145.006 41.1788 144.561 40.9301C144.116 40.6683 143.638 40.5374 143.128 40.5374C142.617 40.5374 142.146 40.6618 141.714 40.9105C141.282 41.1592 140.928 41.5258 140.653 42.0101C140.392 42.4814 140.261 43.0443 140.261 43.6988C140.261 44.3534 140.392 44.9294 140.653 45.4268C140.928 45.9112 141.282 46.2843 141.714 46.5461C142.159 46.8079 142.63 46.9388 143.128 46.9388C143.638 46.9388 144.116 46.8145 144.561 46.5658C145.006 46.3039 145.36 45.9374 145.621 45.4661C145.883 44.9818 146.014 44.4058 146.014 43.7381Z" fill="black"/>
<path d="M154.217 39.9876C154.57 39.4116 155.029 38.9599 155.591 38.6327C156.167 38.3054 156.822 38.1418 157.555 38.1418V41.0283H156.829C155.965 41.0283 155.31 41.2312 154.865 41.637C154.433 42.0428 154.217 42.7498 154.217 43.7578V49.1774H151.468V38.2988H154.217V39.9876Z" fill="black"/>
<path d="M158.7 43.6988C158.7 42.5992 158.916 41.6239 159.348 40.773C159.793 39.9221 160.395 39.2676 161.154 38.8094C161.914 38.3512 162.758 38.1221 163.687 38.1221C164.394 38.1221 165.069 38.2792 165.71 38.5934C166.351 38.8945 166.862 39.3003 167.242 39.8108V34.6465H170.03V49.1774H167.242V47.5672C166.901 48.1039 166.423 48.5359 165.808 48.8632C165.193 49.1905 164.479 49.3541 163.668 49.3541C162.751 49.3541 161.914 49.1185 161.154 48.6472C160.395 48.1759 159.793 47.5148 159.348 46.6639C158.916 45.7999 158.7 44.8116 158.7 43.6988ZM167.261 43.7381C167.261 43.0705 167.13 42.501 166.869 42.0298C166.607 41.5454 166.253 41.1788 165.808 40.9301C165.363 40.6683 164.885 40.5374 164.375 40.5374C163.864 40.5374 163.393 40.6618 162.961 40.9105C162.529 41.1592 162.175 41.5258 161.901 42.0101C161.639 42.4814 161.508 43.0443 161.508 43.6988C161.508 44.3534 161.639 44.9294 161.901 45.4268C162.175 45.9112 162.529 46.2843 162.961 46.5461C163.406 46.8079 163.877 46.9388 164.375 46.9388C164.885 46.9388 165.363 46.8145 165.808 46.5658C166.253 46.3039 166.607 45.9374 166.869 45.4661C167.13 44.9818 167.261 44.4058 167.261 43.7381Z" fill="black"/>
</g>
<defs>
<linearGradient id="paint0_linear_124_907" x1="21.8181" y1="42.0002" x2="62.1818" y2="42.0002" gradientUnits="userSpaceOnUse">
<stop stop-color="#00AADD"/>
<stop offset="1" stop-color="#EEFF00"/>
</linearGradient>
</defs>
</svg>
