<svg width="99" height="27" viewBox="0 0 99 27" fill="none" xmlns="http://www.w3.org/2000/svg">
<mask id="mask0_557_362" style="mask-type:alpha" maskUnits="userSpaceOnUse" x="0" y="0" width="27" height="27">
<rect width="26.9091" height="26.9091" fill="url(#paint0_linear_557_362)"/>
</mask>
<g mask="url(#mask0_557_362)">
<path d="M8.45851 0.000298671C7.27074 0.000298671 6.17506 0.212515 5.15911 0.629943L5.15187 0.632919L5.14459 0.635801C4.10945 1.04536 3.21841 1.60749 2.46093 2.32216C1.70194 3.03826 1.09543 3.88135 0.642251 4.86099C0.216766 5.82086 0 6.85719 0 7.98082C0 8.01152 0.000161816 8.04216 0.000485285 8.07273L0 8.16453C0 9.28819 0.216797 10.3246 0.642244 11.2845C1.09546 12.2641 1.70197 13.1071 2.46097 13.8233C3.2184 14.5379 4.10942 15.1001 5.14461 15.5095L5.15915 15.5155C6.16737 15.9298 7.25416 16.1423 8.43152 16.1455H8.4775C8.61753 16.1455 8.70586 15.9932 8.64298 15.8681C8.27813 15.1422 8.07273 14.3224 8.07273 13.4545C8.07273 12.5867 8.27813 11.7669 8.64298 11.041C8.70586 10.9158 8.61753 10.7636 8.4775 10.7636H8.4013C7.58588 10.764 6.85998 10.7642 6.28159 10.2184C5.68963 9.65994 5.37647 8.95586 5.37647 8.16453C5.37647 8.13387 5.377 8.10321 5.37787 8.07273C5.37697 8.04222 5.37652 8.01158 5.37652 7.98082C5.37652 7.18946 5.68963 6.48539 6.28157 5.9269C6.85991 5.38124 7.58556 5.3815 8.40087 5.3818L21.3455 5.38182C21.4459 5.38182 21.5273 5.46322 21.5273 5.56364V5.95532C21.5273 5.97129 21.5292 5.98728 21.5343 6.00242C21.612 6.233 21.9005 6.37321 22.2299 6.37321C22.4774 6.37321 22.6949 6.27168 22.8191 6.11822L22.8315 6.10227L22.8417 6.08847L26.694 0.995813C26.8553 0.796651 26.9091 0.697069 26.9091 0.552365C26.9091 0.247203 26.5961 0 26.2099 0C26.1891 0 26.1684 0.000758018 26.1481 0.00217223C26.1383 0.00285039 26.1285 0.0029 26.1188 0.00227568C26.0956 0.000795017 26.0722 0 26.0485 0L8.45851 0.000298671Z" fill="white"/>
<path d="M18.5078 16.1455H18.4316C18.2916 16.1455 18.2032 15.9932 18.2661 15.8681C18.631 15.1422 18.8364 14.3224 18.8364 13.4545C18.8364 12.5867 18.631 11.7669 18.2661 11.041C18.2032 10.9158 18.2916 10.7636 18.4316 10.7636H18.4776C19.6549 10.7668 20.7417 10.9793 21.7499 11.3936L21.7645 11.3996C22.7997 11.809 23.6907 12.3712 24.4481 13.0858C25.2071 13.8019 25.8136 14.645 26.2668 15.6246C26.6923 16.5845 26.9091 17.6209 26.9091 18.7446L26.9086 18.8364C26.9087 18.8488 26.9088 18.8613 26.9089 18.8738C26.909 18.8919 26.9091 18.9101 26.9091 18.9283C26.9091 20.0519 26.6923 21.0882 26.2668 22.0481C25.8137 23.0277 25.2072 23.8708 24.4482 24.5869C23.6907 25.3016 22.7996 25.8637 21.7645 26.2733L21.7572 26.2762L21.75 26.2791C20.734 26.6966 19.6384 26.9088 18.4506 26.9088L0.86055 26.9091C0.836923 26.9091 0.813512 26.9083 0.790345 26.9068C0.780574 26.9062 0.770772 26.9062 0.761004 26.9069C0.740643 26.9083 0.720022 26.9091 0.699195 26.9091C0.313042 26.9091 6.63174e-07 26.6619 6.89852e-07 26.3567C7.02503e-07 26.212 0.0537866 26.1124 0.215139 25.9133L4.06744 20.8206L4.07757 20.8068L4.08997 20.7909C4.21419 20.6374 4.43169 20.5359 4.67923 20.5359C5.00858 20.5359 5.29709 20.6761 5.37484 20.9067C5.37995 20.9218 5.38182 20.9378 5.38182 20.9538L5.38182 21.3455C5.38182 21.4459 5.46322 21.5273 5.56364 21.5273L18.5082 21.5273C19.3235 21.5276 20.0492 21.5279 20.6275 20.9822C21.2195 20.4237 21.5326 19.7196 21.5326 18.9283C21.5326 18.8975 21.5321 18.8669 21.5312 18.8364C21.5321 18.8059 21.5326 18.7752 21.5326 18.7446C21.5326 17.9532 21.2195 17.2492 20.6275 16.6906C20.0491 16.1449 19.3232 16.1451 18.5078 16.1455Z" fill="white"/>
<circle cx="13.6364" cy="13.6364" r="3.63636" fill="#EEFF00"/>
</g>
<path d="M39.0268 18.3307C38.3897 18.3307 37.8137 18.2216 37.2988 18.0034C36.7926 17.7852 36.3911 17.471 36.0944 17.0608C35.7977 16.6507 35.645 16.1663 35.6362 15.6078H37.5999C37.626 15.983 37.757 16.2798 37.9926 16.4979C38.237 16.7161 38.5686 16.8252 38.9875 16.8252C39.4151 16.8252 39.7511 16.7248 39.9955 16.5241C40.2399 16.3147 40.362 16.0441 40.362 15.7125C40.362 15.4419 40.2791 15.2194 40.1133 15.0448C39.9475 14.8703 39.738 14.735 39.485 14.639C39.2406 14.5343 38.9002 14.4208 38.4639 14.2987C37.8704 14.1241 37.386 13.9539 37.0108 13.7881C36.6442 13.6136 36.3257 13.3561 36.0551 13.0158C35.7933 12.6667 35.6624 12.2041 35.6624 11.6281C35.6624 11.087 35.7977 10.6158 36.0682 10.2143C36.3388 9.81285 36.7184 9.50739 37.2071 9.29794C37.6959 9.07976 38.2544 8.97067 38.8828 8.97067C39.8253 8.97067 40.589 9.20194 41.1737 9.66448C41.7671 10.1183 42.0944 10.7554 42.1555 11.5758H40.1395C40.122 11.2616 39.9868 11.0041 39.7337 10.8034C39.4893 10.5939 39.162 10.4892 38.7519 10.4892C38.394 10.4892 38.106 10.5808 37.8879 10.7641C37.6784 10.9474 37.5737 11.2136 37.5737 11.5627C37.5737 11.807 37.6522 12.0121 37.8093 12.1779C37.9751 12.335 38.1759 12.4659 38.4115 12.5707C38.6559 12.6667 38.9962 12.7801 39.4326 12.911C40.026 13.0856 40.5104 13.2601 40.8857 13.4347C41.261 13.6092 41.5839 13.871 41.8544 14.2201C42.125 14.5692 42.2602 15.0274 42.2602 15.5947C42.2602 16.0834 42.1337 16.5372 41.8806 16.9561C41.6275 17.375 41.2566 17.711 40.7679 17.9641C40.2791 18.2085 39.6988 18.3307 39.0268 18.3307Z" fill="white"/>
<path d="M50.591 14.4558C50.591 14.7176 50.5735 14.9532 50.5386 15.1627H45.2368C45.2804 15.6863 45.4637 16.0965 45.7866 16.3932C46.1095 16.6899 46.5066 16.8383 46.9779 16.8383C47.6586 16.8383 48.143 16.5459 48.431 15.9612H50.4077C50.1982 16.6594 49.7968 17.2354 49.2033 17.6892C48.6099 18.1343 47.8811 18.3568 47.0171 18.3568C46.319 18.3568 45.6906 18.2041 45.132 17.8987C44.5822 17.5845 44.1502 17.1438 43.836 16.5765C43.5306 16.0092 43.3779 15.3547 43.3779 14.6128C43.3779 13.8623 43.5306 13.2034 43.836 12.6361C44.1415 12.0688 44.5691 11.6325 45.119 11.327C45.6688 11.0216 46.3015 10.8688 47.0171 10.8688C47.7066 10.8688 48.3219 11.0172 48.863 11.3139C49.4128 11.6107 49.8361 12.0339 50.1328 12.5838C50.4382 13.1248 50.591 13.7488 50.591 14.4558ZM48.6928 13.9321C48.684 13.4608 48.5139 13.0856 48.1822 12.8063C47.8506 12.5183 47.4448 12.3743 46.9648 12.3743C46.511 12.3743 46.127 12.5139 45.8128 12.7932C45.5073 13.0638 45.3197 13.4434 45.2499 13.9321H48.6928Z" fill="white"/>
<path d="M51.4574 14.5867C51.4574 13.8536 51.6014 13.2034 51.8894 12.6361C52.1861 12.0688 52.5832 11.6325 53.0807 11.327C53.5869 11.0216 54.1498 10.8688 54.7694 10.8688C55.3105 10.8688 55.7818 10.9779 56.1832 11.1961C56.5934 11.4143 56.9207 11.6892 57.165 12.0208V10.9867H59.0109V18.239H57.165V17.1787C56.9294 17.519 56.6021 17.8027 56.1832 18.0296C55.7731 18.2478 55.2974 18.3568 54.7563 18.3568C54.1454 18.3568 53.5869 18.1998 53.0807 17.8856C52.5832 17.5714 52.1861 17.1307 51.8894 16.5634C51.6014 15.9874 51.4574 15.3285 51.4574 14.5867ZM57.165 14.6128C57.165 14.1678 57.0778 13.7881 56.9032 13.4739C56.7287 13.151 56.4931 12.9067 56.1963 12.7408C55.8996 12.5663 55.5811 12.479 55.2407 12.479C54.9003 12.479 54.5861 12.5619 54.2981 12.7278C54.0101 12.8936 53.7745 13.1379 53.5912 13.4608C53.4167 13.775 53.3294 14.1503 53.3294 14.5867C53.3294 15.023 53.4167 15.407 53.5912 15.7387C53.7745 16.0616 54.0101 16.3103 54.2981 16.4848C54.5949 16.6594 54.909 16.7467 55.2407 16.7467C55.5811 16.7467 55.8996 16.6638 56.1963 16.4979C56.4931 16.3234 56.7287 16.079 56.9032 15.7648C57.0778 15.4419 57.165 15.0579 57.165 14.6128Z" fill="white"/>
<path d="M65.9848 13.5525C66.4998 13.6485 66.923 13.9059 67.2547 14.3248C67.5863 14.7438 67.7521 15.2238 67.7521 15.7648C67.7521 16.2536 67.6299 16.6856 67.3856 17.0608C67.1499 17.4274 66.8052 17.7154 66.3514 17.9248C65.8976 18.1343 65.3608 18.239 64.7412 18.239H60.8008V9.10158H64.571C65.1907 9.10158 65.723 9.20194 66.1681 9.40267C66.6219 9.60339 66.9623 9.88267 67.1892 10.2405C67.4248 10.5983 67.5427 11.0041 67.5427 11.4579C67.5427 11.9903 67.3987 12.4354 67.1107 12.7932C66.8314 13.151 66.4561 13.4041 65.9848 13.5525ZM62.6336 12.8718H64.3092C64.7456 12.8718 65.0816 12.7758 65.3172 12.5838C65.5528 12.383 65.6707 12.0994 65.6707 11.7328C65.6707 11.3663 65.5528 11.0827 65.3172 10.8819C65.0816 10.6812 64.7456 10.5808 64.3092 10.5808H62.6336V12.8718ZM64.4794 16.7467C64.9245 16.7467 65.2692 16.6419 65.5136 16.4325C65.7667 16.223 65.8932 15.9263 65.8932 15.5423C65.8932 15.1496 65.7623 14.8441 65.5005 14.6259C65.2387 14.399 64.8852 14.2856 64.4401 14.2856H62.6336V16.7467H64.4794Z" fill="white"/>
<path d="M72.4331 18.3568C71.735 18.3568 71.1066 18.2041 70.548 17.8987C69.9895 17.5845 69.5488 17.1438 69.2259 16.5765C68.9117 16.0092 68.7546 15.3547 68.7546 14.6128C68.7546 13.871 68.9161 13.2165 69.239 12.6492C69.5706 12.0819 70.02 11.6456 70.5873 11.3401C71.1546 11.0259 71.7873 10.8688 72.4855 10.8688C73.1837 10.8688 73.8164 11.0259 74.3837 11.3401C74.951 11.6456 75.3961 12.0819 75.719 12.6492C76.0506 13.2165 76.2164 13.871 76.2164 14.6128C76.2164 15.3547 76.0462 16.0092 75.7059 16.5765C75.3742 17.1438 74.9204 17.5845 74.3444 17.8987C73.7771 18.2041 73.1401 18.3568 72.4331 18.3568ZM72.4331 16.7598C72.7648 16.7598 73.0746 16.6812 73.3626 16.5241C73.6593 16.3583 73.895 16.1139 74.0695 15.791C74.2441 15.4681 74.3313 15.0754 74.3313 14.6128C74.3313 13.9234 74.1481 13.3954 73.7815 13.0288C73.4237 12.6536 72.983 12.4659 72.4593 12.4659C71.9357 12.4659 71.495 12.6536 71.1371 13.0288C70.7881 13.3954 70.6135 13.9234 70.6135 14.6128C70.6135 15.3023 70.7837 15.8347 71.1241 16.2099C71.4731 16.5765 71.9095 16.7598 72.4331 16.7598Z" fill="white"/>
<path d="M77.0895 14.5867C77.0895 13.8536 77.2335 13.2034 77.5215 12.6361C77.8182 12.0688 78.2153 11.6325 78.7128 11.327C79.219 11.0216 79.7819 10.8688 80.4015 10.8688C80.9426 10.8688 81.4139 10.9779 81.8153 11.1961C82.2255 11.4143 82.5528 11.6892 82.7972 12.0208V10.9867H84.643V18.239H82.7972V17.1787C82.5615 17.519 82.2342 17.8027 81.8153 18.0296C81.4052 18.2478 80.9295 18.3568 80.3884 18.3568C79.7775 18.3568 79.219 18.1998 78.7128 17.8856C78.2153 17.5714 77.8182 17.1307 77.5215 16.5634C77.2335 15.9874 77.0895 15.3285 77.0895 14.5867ZM82.7972 14.6128C82.7972 14.1678 82.7099 13.7881 82.5353 13.4739C82.3608 13.151 82.1252 12.9067 81.8284 12.7408C81.5317 12.5663 81.2132 12.479 80.8728 12.479C80.5324 12.479 80.2182 12.5619 79.9302 12.7278C79.6422 12.8936 79.4066 13.1379 79.2233 13.4608C79.0488 13.775 78.9615 14.1503 78.9615 14.5867C78.9615 15.023 79.0488 15.407 79.2233 15.7387C79.4066 16.0616 79.6422 16.3103 79.9302 16.4848C80.227 16.6594 80.5412 16.7467 80.8728 16.7467C81.2132 16.7467 81.5317 16.6638 81.8284 16.4979C82.1252 16.3234 82.3608 16.079 82.5353 15.7648C82.7099 15.4419 82.7972 15.0579 82.7972 14.6128Z" fill="white"/>
<path d="M88.2657 12.1125C88.5013 11.7285 88.8068 11.4274 89.182 11.2092C89.566 10.991 90.0024 10.8819 90.4911 10.8819V12.8063H90.0068C89.4308 12.8063 88.9944 12.9416 88.6977 13.2121C88.4097 13.4827 88.2657 13.9539 88.2657 14.6259V18.239H86.4329V10.9867H88.2657V12.1125Z" fill="white"/>
<path d="M91.2543 14.5867C91.2543 13.8536 91.3983 13.2034 91.6863 12.6361C91.983 12.0688 92.3845 11.6325 92.8907 11.327C93.3968 11.0216 93.9597 10.8688 94.5794 10.8688C95.0507 10.8688 95.5001 10.9736 95.9277 11.183C96.3554 11.3838 96.6957 11.6543 96.9488 11.9947V8.55176H98.8077V18.239H96.9488V17.1656C96.7219 17.5234 96.4034 17.8114 95.9932 18.0296C95.583 18.2478 95.1074 18.3568 94.5663 18.3568C93.9554 18.3568 93.3968 18.1998 92.8907 17.8856C92.3845 17.5714 91.983 17.1307 91.6863 16.5634C91.3983 15.9874 91.2543 15.3285 91.2543 14.5867ZM96.9619 14.6128C96.9619 14.1678 96.8747 13.7881 96.7001 13.4739C96.5256 13.151 96.2899 12.9067 95.9932 12.7408C95.6965 12.5663 95.3779 12.479 95.0376 12.479C94.6972 12.479 94.383 12.5619 94.095 12.7278C93.807 12.8936 93.5714 13.1379 93.3881 13.4608C93.2136 13.775 93.1263 14.1503 93.1263 14.5867C93.1263 15.023 93.2136 15.407 93.3881 15.7387C93.5714 16.0616 93.807 16.3103 94.095 16.4848C94.3917 16.6594 94.7059 16.7467 95.0376 16.7467C95.3779 16.7467 95.6965 16.6638 95.9932 16.4979C96.2899 16.3234 96.5256 16.079 96.7001 15.7648C96.8747 15.4419 96.9619 15.0579 96.9619 14.6128Z" fill="white"/>
<defs>
<linearGradient id="paint0_linear_557_362" x1="2.00488e-07" y1="13.4545" x2="26.9091" y2="13.4545" gradientUnits="userSpaceOnUse">
<stop stop-color="#00AADD"/>
<stop offset="1" stop-color="#EEFF00"/>
</linearGradient>
</defs>
</svg>
