<svg width="350" height="350" viewBox="0 0 308 308" fill="none" xmlns="http://www.w3.org/2000/svg">
<rect width="350" height="350" fill="url(#paint0_linear_101_599)"/>
<mask id="mask0_101_599" style="mask-type:alpha" maskUnits="userSpaceOnUse" x="80" y="80" width="148" height="148">
<rect x="80" y="80" width="156" height="156" fill="url(#paint1_linear_101_599)"/>
</mask>
<g mask="url(#mask0_101_599)">
<path d="M126.522 80.8766C119.989 80.8766 113.963 82.0438 108.375 84.3397L108.335 84.3561L108.295 84.3719C102.602 86.6245 97.7012 89.7162 93.5351 93.6469C89.3607 97.5854 86.0249 102.222 83.5324 107.61C81.1922 112.89 80 118.59 80 124.77C80 124.938 80.0009 125.107 80.0027 125.275L80 125.78C80 131.96 81.1924 137.66 83.5323 142.94C86.025 148.328 89.3608 152.964 93.5354 156.903C97.7012 160.834 102.602 163.926 108.295 166.177L108.375 166.21C113.921 168.489 119.898 169.658 126.373 169.675H126.626C127.396 169.675 127.882 168.838 127.536 168.15C125.53 164.157 124.4 159.648 124.4 154.875C124.4 150.102 125.53 145.593 127.536 141.6C127.882 140.912 127.396 140.075 126.626 140.075H126.207C121.722 140.077 117.73 140.078 114.549 137.076C111.293 134.005 109.571 130.132 109.571 125.78C109.571 125.611 109.574 125.443 109.578 125.275C109.573 125.107 109.571 124.939 109.571 124.77C109.571 120.417 111.293 116.545 114.549 113.473C117.729 110.472 121.721 110.473 126.205 110.475L197.4 110.475C197.952 110.475 198.4 110.923 198.4 111.475V113.629C198.4 113.717 198.41 113.805 198.438 113.888C198.866 115.156 200.453 115.928 202.264 115.928C203.626 115.928 204.822 115.369 205.505 114.525L205.573 114.438L205.629 114.362L226.817 86.352C227.704 85.2566 228 84.7089 228 83.913C228 82.2346 226.278 80.875 224.154 80.875C224.04 80.875 223.926 80.8792 223.814 80.8869C223.761 80.8907 223.707 80.891 223.653 80.8875C223.526 80.8794 223.397 80.875 223.267 80.875L126.522 80.8766Z" fill="white"/>
<path d="M181.793 169.675H181.374C180.604 169.675 180.118 168.838 180.464 168.15C182.47 164.157 183.6 159.648 183.6 154.875C183.6 150.102 182.47 145.593 180.464 141.6C180.118 140.912 180.604 140.075 181.374 140.075H181.627C188.102 140.092 194.079 141.261 199.625 143.54L199.705 143.573C205.398 145.824 210.299 148.916 214.465 152.847C218.639 156.786 221.975 161.422 224.468 166.81C226.808 172.09 228 177.79 228 183.97L227.997 184.475C227.998 184.544 227.999 184.612 227.999 184.681C228 184.781 228 184.88 228 184.98C228 191.16 226.808 196.86 224.468 202.14C221.975 207.528 218.639 212.165 214.465 216.103C210.299 220.034 205.398 223.126 199.705 225.378L199.665 225.394L199.625 225.41C194.037 227.706 188.011 228.873 181.478 228.873L84.733 228.875C84.6031 228.875 84.4743 228.871 84.3469 228.862C84.2932 228.859 84.2392 228.859 84.1855 228.863C84.0735 228.871 83.9601 228.875 83.8456 228.875C81.7217 228.875 80 227.515 80 225.837C80 225.041 80.2958 224.493 81.1833 223.398L102.371 195.388L102.427 195.312L102.495 195.225C103.178 194.381 104.374 193.822 105.736 193.822C107.547 193.822 109.134 194.594 109.562 195.862C109.59 195.945 109.6 196.033 109.6 196.121L109.6 198.275C109.6 198.827 110.048 199.275 110.6 199.275L181.795 199.275C186.279 199.277 190.271 199.278 193.451 196.277C196.707 193.205 198.429 189.333 198.429 184.98C198.429 184.811 198.427 184.643 198.422 184.475C198.427 184.307 198.429 184.139 198.429 183.97C198.429 179.618 196.707 175.745 193.451 172.674C190.27 169.672 186.278 169.673 181.793 169.675Z" fill="white"/>
<circle cx="155" cy="155.074" r="20" fill="#EEFF00"/>
</g>
<defs>
<linearGradient id="paint0_linear_101_599" x1="2.29478e-06" y1="154" x2="308" y2="154" gradientUnits="userSpaceOnUse">
<stop stop-color="#331199"/>
<stop offset="1" stop-color="#5533FF"/>
</linearGradient>
<linearGradient id="paint1_linear_101_599" x1="80" y1="154" x2="228" y2="154" gradientUnits="userSpaceOnUse">
<stop stop-color="#00AADD"/>
<stop offset="1" stop-color="#EEFF00"/>
</linearGradient>
</defs>
</svg>
