<svg width="135" height="40" viewBox="0 0 135 40" fill="none" xmlns="http://www.w3.org/2000/svg">
<path d="M134.103 35.2769C134.103 37.3927 132.387 39.1079 130.271 39.1079H130.267H4.73232C2.61356 39.1101 0.894078 37.3951 0.891281 35.2769V4.7261C0.894078 2.60705 2.61282 0.890656 4.73232 0.890064H130.266C132.384 0.890064 134.102 2.60704 134.102 4.72507V4.7261L134.103 35.2769Z" fill="white"/>
<path d="M130.266 39.999H4.73147C2.1217 39.9984 0.00500577 37.8859 0 35.2768V4.72709C0.00382794 2.11673 2.12038 0.00194168 4.73147 -0.00012207H130.265C132.875 0.00311661 134.991 2.11717 134.996 4.72709V35.2768C134.998 37.8814 132.872 39.999 130.266 39.999Z" fill="#A6A5A5"/>
<path d="M134.103 35.2769C134.103 37.3927 132.387 39.1079 130.271 39.1079H130.267H4.73232C2.61356 39.1101 0.894078 37.3951 0.891281 35.2769V4.7261C0.894078 2.60705 2.61282 0.890656 4.73232 0.890064H130.266C132.384 0.890064 134.102 2.60704 134.102 4.72507V4.7261L134.103 35.2769Z" fill="#010101"/>
<mask id="mask0_2592_1330" style="mask-type:luminance" maskUnits="userSpaceOnUse" x="63" y="0" width="72" height="40">
<path d="M63.025 0.000709534H134.997V40H63.025V0.000709534Z" fill="white"/>
</mask>
<g mask="url(#mask0_2592_1330)">
<g opacity="0.100006">
<path d="M130.265 0.000854492H63.0251L89.3617 40H130.265C132.875 39.9979 134.991 37.8845 134.996 35.2749V4.72807C134.992 2.118 132.876 0.00365448 130.265 0.000854492Z" fill="white"/>
</g>
</g>
<path d="M75.274 14.83V8.96351H76.1539L78.9894 13.559V8.96351H79.7716V14.83H78.9894L75.9584 10.039V14.83H75.274ZM69.603 13.559C69.9942 13.95 70.5808 14.2433 71.1675 14.2433C71.754 14.2433 72.3407 14.0478 72.7318 13.559C73.123 13.1678 73.4162 12.5812 73.4162 11.8967C73.4162 11.2123 73.2207 10.6257 72.7318 10.2345C72.3407 9.8435 71.754 9.55022 71.1675 9.55022C70.5808 9.55022 69.9942 9.74574 69.603 10.2345C69.212 10.6257 68.9187 11.2123 68.9187 11.8967C68.9187 12.5812 69.1142 13.1678 69.603 13.559ZM73.3185 14.0478C72.7319 14.6345 72.0475 14.9277 71.1675 14.9277C70.2875 14.9277 69.603 14.6345 69.0165 14.0478C68.4298 13.4612 68.1365 12.7767 68.1365 11.8967C68.1365 11.0168 68.4298 10.3324 69.0165 9.74574C69.603 9.15903 70.2875 8.86575 71.1675 8.86575C72.0475 8.86575 72.7319 9.15903 73.3185 9.74574C73.9052 10.3324 74.1985 11.0168 74.1985 11.8967C74.1985 12.7767 73.9052 13.4612 73.3185 14.0478ZM64.03 14.83H63.2478V9.64798H61.5856V8.96351H65.5943V9.64798H63.9322V14.83H64.03ZM59.9235 8.96351H60.7057V14.83H59.9235V8.96351ZM55.4258 14.83H54.6437V9.64798H52.9815V8.96351H57.088V9.64798H55.4258V14.83ZM52.1993 9.64798H49.5595V11.5057H52.0038V12.19H49.5595V14.0478H52.1993V14.83H48.7773V8.96351H52.1993V9.64798ZM47.7018 12.0923C47.7018 12.8745 47.5063 13.559 47.0173 14.0478C46.4306 14.6345 45.7463 14.9277 44.8663 14.9277C43.9863 14.9277 43.3019 14.6345 42.7153 14.0478C42.1286 13.4612 41.8353 12.7767 41.8353 11.8967C41.8353 11.0168 42.1286 10.3324 42.7153 9.74574C43.3019 9.15903 43.9863 8.86575 44.8663 8.86575C45.2573 8.86575 45.6485 8.96351 46.0396 9.15903C46.4306 9.3547 46.724 9.55022 46.9195 9.8435L46.4306 10.3324C46.0396 9.8435 45.5508 9.64798 44.8663 9.64798C44.2796 9.64798 43.693 9.8435 43.3019 10.3324C42.8131 10.7235 42.6175 11.3102 42.6175 11.9945C42.6175 12.679 42.8131 13.2655 43.3019 13.6567C43.7908 14.0478 44.2796 14.3412 44.8663 14.3412C45.5508 14.3412 46.0396 14.1455 46.5285 13.6567C46.8218 13.3634 47.0173 12.9722 47.0173 12.4834H44.8663V11.7012H47.7018V12.0923Z" fill="white"/>
<path d="M105.877 30.1798H107.735V17.9581H105.877V30.1798ZM122.303 22.3579L120.25 27.6376H120.152L118.001 22.3579H116.046L119.272 29.7888L117.415 33.8953H119.272L124.259 22.3579H122.303H122.303ZM112.037 28.8111C111.45 28.8111 110.57 28.5176 110.57 27.7356C110.57 26.7578 111.646 26.4644 112.526 26.4644C113.308 26.4644 113.699 26.6599 114.188 26.8556C113.992 28.0288 113.015 28.8111 112.037 28.8111ZM112.232 22.0646C110.864 22.0646 109.495 22.6513 109.006 23.9223L110.668 24.6067C111.059 23.9223 111.646 23.7268 112.33 23.7268C113.308 23.7268 114.188 24.3134 114.286 25.2911V25.3889C113.992 25.1934 113.21 24.9001 112.428 24.9001C110.668 24.9001 108.908 25.8778 108.908 27.6376C108.908 29.2999 110.375 30.3754 111.939 30.3754C113.21 30.3754 113.797 29.7888 114.286 29.2021H114.384V30.1798H116.143V25.4866C115.948 23.3356 114.286 22.0646 112.232 22.0646ZM100.988 23.8246H98.3486V19.6202H100.988C102.357 19.6202 103.139 20.7936 103.139 21.6736C103.042 22.7491 102.26 23.8246 100.988 23.8246ZM100.891 17.9581H96.4909V30.1798H98.3486V25.5844H100.891C102.944 25.5844 104.899 24.1179 104.899 21.7713C104.899 19.4247 102.944 17.9581 100.891 17.9581ZM77.0339 28.8111C75.7628 28.8111 74.6873 27.7356 74.6873 26.2689C74.6873 24.8023 75.7628 23.7268 77.0339 23.7268C78.3049 23.7268 79.2827 24.8023 79.2827 26.2689C79.2827 27.7356 78.3049 28.8111 77.0339 28.8111ZM79.1849 23.0424C78.696 22.5534 77.9138 22.0646 76.936 22.0646C74.8828 22.0646 72.9273 23.9223 72.9273 26.2689C72.9273 28.6154 74.785 30.3754 76.936 30.3754C77.9138 30.3754 78.696 29.8866 79.0872 29.3976H79.1849V29.9843C79.1849 31.5486 78.305 32.4286 76.936 32.4286C75.8605 32.4286 75.0784 31.6464 74.8828 30.9621L73.3185 31.6464C73.8073 32.7219 74.9805 34.0908 77.0339 34.0908C79.1849 34.0908 80.9448 32.8198 80.9448 29.7888V22.3579H79.1849V23.0424ZM82.1182 30.1798H83.9759V17.9581H82.1182V30.1798ZM86.7135 26.1711C86.7135 24.6067 87.9845 23.7268 88.8645 23.7268C89.5489 23.7268 90.2334 24.1179 90.4289 24.6067L86.7135 26.1711ZM92.3844 24.8023C91.9932 23.8246 91.0155 22.1624 88.8645 22.1624C86.7135 22.1624 84.9535 23.8246 84.9535 26.3666C84.9535 28.7131 86.7135 30.5709 89.0601 30.5709C90.9177 30.5709 92.091 29.3976 92.4822 28.7132L91.1132 27.7356C90.6244 28.4199 90.0377 28.9088 89.0601 28.9088C88.0824 28.9088 87.4957 28.5176 87.0067 27.6376L92.5799 25.2911L92.3844 24.8023ZM47.9951 23.4334V25.1934H52.1993C52.1015 26.1711 51.7104 26.9533 51.2216 27.4421C50.6349 28.0288 49.6571 28.7132 47.9951 28.7132C45.3551 28.7132 43.3996 26.6599 43.3996 24.0201C43.3996 21.3801 45.4529 19.3269 47.9951 19.3269C49.3638 19.3269 50.4393 19.9136 51.2216 20.5979L52.4926 19.3269C51.4171 18.3492 50.0483 17.5669 48.0928 17.5669C44.5729 17.5669 41.5419 20.5002 41.5419 24.0201C41.5419 27.5399 44.5729 30.4731 48.0928 30.4731C50.0483 30.4731 51.4171 29.8866 52.5903 28.6154C53.7636 27.4421 54.1548 25.7801 54.1548 24.5089C54.1548 24.1179 54.1548 23.7268 54.057 23.4334H47.9951ZM58.848 28.8111C57.5768 28.8111 56.5013 27.7356 56.5013 26.2689C56.5013 24.8023 57.5768 23.7268 58.848 23.7268C60.119 23.7268 61.1945 24.7044 61.1945 26.2689C61.1945 27.7356 60.119 28.8111 58.848 28.8111ZM58.848 22.1624C56.5013 22.1624 54.6436 23.9223 54.6436 26.3666C54.6436 28.7131 56.5013 30.5709 58.848 30.5709C61.1945 30.5709 63.0522 28.8111 63.0522 26.3666C63.0522 23.8246 61.1945 22.1624 58.848 22.1624ZM67.941 28.8111C66.6698 28.8111 65.5943 27.7356 65.5943 26.2689C65.5943 24.8023 66.6698 23.7268 67.941 23.7268C69.212 23.7268 70.2875 24.7044 70.2875 26.2689C70.2875 27.7356 69.212 28.8111 67.941 28.8111ZM67.941 22.1624C65.5943 22.1624 63.7366 23.9223 63.7366 26.3666C63.7366 28.7131 65.5943 30.5709 67.941 30.5709C70.2875 30.5709 72.1452 28.8111 72.1452 26.3666C72.1452 23.8246 70.2875 22.1624 67.941 22.1624Z" fill="white"/>
<path d="M14.1403 9.48588V31.094C14.1403 31.6806 14.3358 32.1694 14.6291 32.4628L14.7268 32.5605L26.8508 20.4364V20.2409L14.5313 8.11695C14.238 8.41038 14.1403 8.89933 14.1403 9.48588Z" fill="url(#paint0_linear_2592_1330)"/>
<path d="M26.7535 20.241V20.5344L30.7623 24.543L35.651 21.9032C37.0198 21.1209 37.0198 19.8499 35.651 19.0677L30.86 16.3301L30.7623 16.2322L26.7535 20.241Z" fill="url(#paint1_linear_2592_1330)"/>
<path d="M14.5287 32.5601C15.0177 33.0489 15.702 33.0489 16.582 32.6579L30.8569 24.4447L26.7504 20.3382L14.5287 32.5601Z" fill="url(#paint2_linear_2592_1330)"/>
<path d="M14.5287 8.2149L26.7504 20.3389L30.8569 16.2324L16.582 8.11714C16.1856 7.89689 15.8289 7.79575 15.5118 7.79575C15.125 7.79575 14.7974 7.94636 14.5287 8.2149Z" fill="url(#paint3_linear_2592_1330)"/>
<defs>
<linearGradient id="paint0_linear_2592_1330" x1="20.4955" y1="8.04631" x2="20.4955" y2="32.3786" gradientUnits="userSpaceOnUse">
<stop stop-color="#267CAF"/>
<stop offset="0.286" stop-color="#4A92B4"/>
<stop offset="0.767" stop-color="#79BCBA"/>
<stop offset="1" stop-color="#88CEBC"/>
</linearGradient>
<linearGradient id="paint1_linear_2592_1330" x1="33.0803" y1="17.402" x2="30.1129" y2="24.1139" gradientUnits="userSpaceOnUse">
<stop stop-color="#F48879"/>
<stop offset="0.119" stop-color="#F5907A"/>
<stop offset="0.713" stop-color="#FBB777"/>
<stop offset="1" stop-color="#FDC874"/>
</linearGradient>
<linearGradient id="paint2_linear_2592_1330" x1="28.664" y1="22.5046" x2="15.312" y2="33.3023" gradientUnits="userSpaceOnUse">
<stop stop-color="#EB413D"/>
<stop offset="0.167" stop-color="#D94452"/>
<stop offset="0.575" stop-color="#AF487A"/>
<stop offset="0.862" stop-color="#954B92"/>
<stop offset="1" stop-color="#894A9C"/>
</linearGradient>
<linearGradient id="paint3_linear_2592_1330" x1="16.2597" y1="8.70659" x2="29.0312" y2="18.4594" gradientUnits="userSpaceOnUse">
<stop stop-color="#54C0AC"/>
<stop offset="1" stop-color="#DDE79A"/>
</linearGradient>
</defs>
</svg>
